# xmcd
#
# Track frame offsets:
#	150
#	14193
#	30482
#	49917
#	62029
#	79189
#	97439
#	114247
#	131000
#	147976
#	162411
#	178519
#
# Disc length: 2693 seconds
#
# Revision: 1
# Processed by: cddbd v1.5.1PL0 Copyright (c) Steve Scherf et al.
# Submitted via: audiograbber 1.83.01
#
DISCID=ac0a830c
DTITLE=Shania Twain - Wild and Wicked
DYEAR=1900
DGENRE=
TTITLE0=Wild and Wicked
TTITLE1=Two Hearts, One Love (Always Forever)
TTITLE2=I Lost My Heart When I Found You
TTITLE3=Bite My Lip
TTITLE4=Don't Gimme That (Once Over)
TTITLE5=Hate To Love
TTITLE6=Send It With Love
TTITLE7=L.U.V. Eyes
TTITLE8=Rhythm Made Me Do It    
TTITLE9=Half Breed
TTITLE10=For The Love of Him
TTITLE11=For The Love of Him (Dance Mix)
EXTD=
EXTT0=
EXTT1=
EXTT2=
EXTT3=
EXTT4=
EXTT5=
EXTT6=
EXTT7=
EXTT8=
EXTT9=
EXTT10=
EXTT11=
PLAYORDER=
